<svg width="548" height="159" viewBox="0 0 548 159" fill="none" xmlns="http://www.w3.org/2000/svg">
<path d="M3.81661 111.294C-17.528 72.874 83.7623 30.349 262.778 14.0824C364.007 4.88402 508.882 4.64289 539.787 43.9044C582.162 97.7387 428.355 133.411 325.556 111.294C243.885 93.7223 216.492 153.956 142.714 158.157C93.2758 160.972 30.4974 159.319 3.81661 111.294Z" fill="#2B2B2B"/>
<path d="M3.81661 103.294C-17.528 64.874 83.7623 22.349 262.778 6.08245C364.007 -3.11598 508.882 -3.35711 539.787 35.9044C582.162 89.7387 428.355 125.411 325.556 103.294C243.885 85.7223 216.492 145.956 142.714 150.157C93.2758 152.972 30.4974 151.319 3.81661 103.294Z" stroke="#7C7C7C"/>
<path d="M107.719 72.1446C121.342 72.1446 132.753 67.5162 133.443 61.4685L127.031 43.5021C125.526 47.8398 117.198 50.9178 107.719 50.9178C98.2398 50.9178 89.9121 47.8398 88.4073 43.5021L82.0005 61.4685C82.6902 67.5162 94.0959 72.1446 107.719 72.1446ZM107.719 33.9261C114.126 33.9261 120.071 31.9425 121.815 28.8588C119.415 22.1214 117.358 16.3359 116.052 12.6936C115.186 10.2597 111.259 9 107.719 9C104.179 9 100.252 10.2597 99.3855 12.6936L93.6228 28.8588C95.367 31.9425 101.318 33.9261 107.719 33.9261ZM157.765 77.7762L136.361 69.1464L138.83 76.0263C138.704 83.3166 124.557 89.1306 107.719 89.1306C90.8868 89.1306 76.728 83.3223 76.6083 76.0263L79.0764 69.1464L57.6729 77.7762C51.6708 80.193 51.4143 84.6675 57.1143 87.717L97.3677 109.303C103.056 112.352 112.376 112.352 118.07 109.303L158.329 87.717C164.024 84.6675 163.767 80.193 157.765 77.7762Z" fill="white"/>
<path d="M197.015 33.6149V35.8469H192.575V50.2949H189.839V35.8469H185.375V33.6149H197.015ZM206.985 36.8549C207.993 36.8549 208.889 37.0709 209.673 37.5029C210.473 37.9349 211.097 38.5749 211.545 39.4229C212.009 40.2709 212.241 41.2949 212.241 42.4949V50.2949H209.529V42.9029C209.529 41.7189 209.233 40.8149 208.641 40.1909C208.049 39.5509 207.241 39.2309 206.217 39.2309C205.193 39.2309 204.377 39.5509 203.769 40.1909C203.177 40.8149 202.881 41.7189 202.881 42.9029V50.2949H200.145V32.5349H202.881V38.6069C203.345 38.0469 203.929 37.6149 204.633 37.3109C205.353 37.0069 206.137 36.8549 206.985 36.8549ZM217.483 35.3189C216.987 35.3189 216.571 35.1509 216.235 34.8149C215.899 34.4789 215.731 34.0629 215.731 33.5669C215.731 33.0709 215.899 32.6549 216.235 32.3189C216.571 31.9829 216.987 31.8149 217.483 31.8149C217.963 31.8149 218.371 31.9829 218.707 32.3189C219.043 32.6549 219.211 33.0709 219.211 33.5669C219.211 34.0629 219.043 34.4789 218.707 34.8149C218.371 35.1509 217.963 35.3189 217.483 35.3189ZM218.827 37.0709V50.2949H216.091V37.0709H218.827ZM227.58 50.5109C226.54 50.5109 225.604 50.3269 224.772 49.9589C223.956 49.5749 223.308 49.0629 222.828 48.4229C222.348 47.7669 222.092 47.0389 222.06 46.2389H224.892C224.94 46.7989 225.204 47.2709 225.684 47.6549C226.18 48.0229 226.796 48.2069 227.532 48.2069C228.3 48.2069 228.892 48.0629 229.308 47.7749C229.74 47.4709 229.956 47.0869 229.956 46.6229C229.956 46.1269 229.716 45.7589 229.236 45.5189C228.772 45.2789 228.028 45.0149 227.004 44.7269C226.012 44.4549 225.204 44.1909 224.58 43.9349C223.956 43.6789 223.412 43.2869 222.948 42.7589C222.5 42.2309 222.276 41.5349 222.276 40.6709C222.276 39.9669 222.484 39.3269 222.9 38.7509C223.316 38.1589 223.908 37.6949 224.676 37.3589C225.46 37.0229 226.356 36.8549 227.364 36.8549C228.868 36.8549 230.076 37.2389 230.988 38.0069C231.916 38.7589 232.412 39.7909 232.476 41.1029H229.74C229.692 40.5109 229.452 40.0389 229.02 39.6869C228.588 39.3349 228.004 39.1589 227.268 39.1589C226.548 39.1589 225.996 39.2949 225.612 39.5669C225.228 39.8389 225.036 40.1989 225.036 40.6469C225.036 40.9989 225.164 41.2949 225.42 41.5349C225.676 41.7749 225.988 41.9669 226.356 42.1109C226.724 42.2389 227.268 42.4069 227.988 42.6149C228.948 42.8709 229.732 43.1349 230.34 43.4069C230.964 43.6629 231.5 44.0469 231.948 44.5589C232.396 45.0709 232.628 45.7509 232.644 46.5989C232.644 47.3509 232.436 48.0229 232.02 48.6149C231.604 49.2069 231.012 49.6709 230.244 50.0069C229.492 50.3429 228.604 50.5109 227.58 50.5109ZM259.205 46.8869H252.221L251.021 50.2949H248.165L254.141 33.5909H257.309L263.285 50.2949H260.405L259.205 46.8869ZM258.437 44.6549L255.725 36.9029L252.989 44.6549H258.437ZM268.979 39.0149C269.443 38.4069 270.075 37.8949 270.875 37.4789C271.675 37.0629 272.579 36.8549 273.587 36.8549C274.739 36.8549 275.787 37.1429 276.731 37.7189C277.691 38.2789 278.443 39.0709 278.987 40.0949C279.531 41.1189 279.803 42.2949 279.803 43.6229C279.803 44.9509 279.531 46.1429 278.987 47.1989C278.443 48.2389 277.691 49.0549 276.731 49.6469C275.787 50.2229 274.739 50.5109 273.587 50.5109C272.579 50.5109 271.683 50.3109 270.899 49.9109C270.115 49.4949 269.475 48.9829 268.979 48.3749V56.5829H266.243V37.0709H268.979V39.0149ZM277.019 43.6229C277.019 42.7109 276.827 41.9269 276.443 41.2709C276.075 40.5989 275.579 40.0949 274.955 39.7589C274.347 39.4069 273.691 39.2309 272.987 39.2309C272.299 39.2309 271.643 39.4069 271.019 39.7589C270.411 40.1109 269.915 40.6229 269.531 41.2949C269.163 41.9669 268.979 42.7589 268.979 43.6709C268.979 44.5829 269.163 45.3829 269.531 46.0709C269.915 46.7429 270.411 47.2549 271.019 47.6069C271.643 47.9589 272.299 48.1349 272.987 48.1349C273.691 48.1349 274.347 47.9589 274.955 47.6069C275.579 47.2389 276.075 46.7109 276.443 46.0229C276.827 45.3349 277.019 44.5349 277.019 43.6229ZM285.605 39.0149C286.069 38.4069 286.701 37.8949 287.501 37.4789C288.301 37.0629 289.205 36.8549 290.213 36.8549C291.365 36.8549 292.413 37.1429 293.357 37.7189C294.317 38.2789 295.069 39.0709 295.613 40.0949C296.157 41.1189 296.429 42.2949 296.429 43.6229C296.429 44.9509 296.157 46.1429 295.613 47.1989C295.069 48.2389 294.317 49.0549 293.357 49.6469C292.413 50.2229 291.365 50.5109 290.213 50.5109C289.205 50.5109 288.309 50.3109 287.525 49.9109C286.741 49.4949 286.101 48.9829 285.605 48.3749V56.5829H282.869V37.0709H285.605V39.0149ZM293.645 43.6229C293.645 42.7109 293.453 41.9269 293.069 41.2709C292.701 40.5989 292.205 40.0949 291.581 39.7589C290.973 39.4069 290.317 39.2309 289.613 39.2309C288.925 39.2309 288.269 39.4069 287.645 39.7589C287.037 40.1109 286.541 40.6229 286.157 41.2949C285.789 41.9669 285.605 42.7589 285.605 43.6709C285.605 44.5829 285.789 45.3829 286.157 46.0709C286.541 46.7429 287.037 47.2549 287.645 47.6069C288.269 47.9589 288.925 48.1349 289.613 48.1349C290.317 48.1349 290.973 47.9589 291.581 47.6069C292.205 47.2389 292.701 46.7109 293.069 46.0229C293.453 45.3349 293.645 44.5349 293.645 43.6229ZM307.481 35.3189C306.985 35.3189 306.569 35.1509 306.233 34.8149C305.897 34.4789 305.729 34.0629 305.729 33.5669C305.729 33.0709 305.897 32.6549 306.233 32.3189C306.569 31.9829 306.985 31.8149 307.481 31.8149C307.961 31.8149 308.369 31.9829 308.705 32.3189C309.041 32.6549 309.209 33.0709 309.209 33.5669C309.209 34.0629 309.041 34.4789 308.705 34.8149C308.369 35.1509 307.961 35.3189 307.481 35.3189ZM308.825 37.0709V50.2949H306.089V37.0709H308.825ZM317.577 50.5109C316.537 50.5109 315.601 50.3269 314.769 49.9589C313.953 49.5749 313.305 49.0629 312.825 48.4229C312.345 47.7669 312.089 47.0389 312.057 46.2389H314.889C314.937 46.7989 315.201 47.2709 315.681 47.6549C316.177 48.0229 316.793 48.2069 317.529 48.2069C318.297 48.2069 318.889 48.0629 319.305 47.7749C319.737 47.4709 319.953 47.0869 319.953 46.6229C319.953 46.1269 319.713 45.7589 319.233 45.5189C318.769 45.2789 318.025 45.0149 317.001 44.7269C316.009 44.4549 315.201 44.1909 314.577 43.9349C313.953 43.6789 313.409 43.2869 312.945 42.7589C312.497 42.2309 312.273 41.5349 312.273 40.6709C312.273 39.9669 312.481 39.3269 312.897 38.7509C313.313 38.1589 313.905 37.6949 314.673 37.3589C315.457 37.0229 316.353 36.8549 317.361 36.8549C318.865 36.8549 320.073 37.2389 320.985 38.0069C321.913 38.7589 322.409 39.7909 322.473 41.1029H319.737C319.689 40.5109 319.449 40.0389 319.017 39.6869C318.585 39.3349 318.001 39.1589 317.265 39.1589C316.545 39.1589 315.993 39.2949 315.609 39.5669C315.225 39.8389 315.033 40.1989 315.033 40.6469C315.033 40.9989 315.161 41.2949 315.417 41.5349C315.673 41.7749 315.985 41.9669 316.353 42.1109C316.721 42.2389 317.265 42.4069 317.985 42.6149C318.945 42.8709 319.729 43.1349 320.337 43.4069C320.961 43.6629 321.497 44.0469 321.945 44.5589C322.393 45.0709 322.625 45.7509 322.641 46.5989C322.641 47.3509 322.433 48.0229 322.017 48.6149C321.601 49.2069 321.009 49.6709 320.241 50.0069C319.489 50.3429 318.601 50.5109 317.577 50.5109ZM337.351 50.5109C336.311 50.5109 335.375 50.3269 334.543 49.9589C333.727 49.5749 333.079 49.0629 332.599 48.4229C332.119 47.7669 331.863 47.0389 331.831 46.2389H334.663C334.711 46.7989 334.975 47.2709 335.455 47.6549C335.951 48.0229 336.567 48.2069 337.303 48.2069C338.071 48.2069 338.663 48.0629 339.079 47.7749C339.511 47.4709 339.727 47.0869 339.727 46.6229C339.727 46.1269 339.487 45.7589 339.007 45.5189C338.543 45.2789 337.799 45.0149 336.775 44.7269C335.783 44.4549 334.975 44.1909 334.351 43.9349C333.727 43.6789 333.183 43.2869 332.719 42.7589C332.271 42.2309 332.047 41.5349 332.047 40.6709C332.047 39.9669 332.255 39.3269 332.671 38.7509C333.087 38.1589 333.679 37.6949 334.447 37.3589C335.231 37.0229 336.127 36.8549 337.135 36.8549C338.639 36.8549 339.847 37.2389 340.759 38.0069C341.687 38.7589 342.183 39.7909 342.247 41.1029H339.511C339.463 40.5109 339.223 40.0389 338.791 39.6869C338.359 39.3349 337.775 39.1589 337.039 39.1589C336.319 39.1589 335.767 39.2949 335.383 39.5669C334.999 39.8389 334.807 40.1989 334.807 40.6469C334.807 40.9989 334.935 41.2949 335.191 41.5349C335.447 41.7749 335.759 41.9669 336.127 42.1109C336.495 42.2389 337.039 42.4069 337.759 42.6149C338.719 42.8709 339.503 43.1349 340.111 43.4069C340.735 43.6629 341.271 44.0469 341.719 44.5589C342.167 45.0709 342.399 45.7509 342.415 46.5989C342.415 47.3509 342.207 48.0229 341.791 48.6149C341.375 49.2069 340.783 49.6709 340.015 50.0069C339.263 50.3429 338.375 50.5109 337.351 50.5109ZM348.924 39.3029V46.6229C348.924 47.1189 349.036 47.4789 349.26 47.7029C349.5 47.9109 349.9 48.0149 350.46 48.0149H352.14V50.2949H349.98C348.748 50.2949 347.804 50.0069 347.148 49.4309C346.492 48.8549 346.164 47.9189 346.164 46.6229V39.3029H344.604V37.0709H346.164V33.7829H348.924V37.0709H352.14V39.3029H348.924ZM356.413 35.3189C355.917 35.3189 355.501 35.1509 355.165 34.8149C354.829 34.4789 354.661 34.0629 354.661 33.5669C354.661 33.0709 354.829 32.6549 355.165 32.3189C355.501 31.9829 355.917 31.8149 356.413 31.8149C356.893 31.8149 357.301 31.9829 357.637 32.3189C357.973 32.6549 358.141 33.0709 358.141 33.5669C358.141 34.0629 357.973 34.4789 357.637 34.8149C357.301 35.1509 356.893 35.3189 356.413 35.3189ZM357.757 37.0709V50.2949H355.021V37.0709H357.757ZM364.446 32.5349V50.2949H361.71V32.5349H364.446ZM371.134 32.5349V50.2949H368.398V32.5349H371.134ZM188.951 69.6149V80.2469C188.951 81.5109 189.279 82.4629 189.935 83.1029C190.607 83.7429 191.535 84.0629 192.719 84.0629C193.919 84.0629 194.847 83.7429 195.503 83.1029C196.175 82.4629 196.511 81.5109 196.511 80.2469V69.6149H199.247V80.1989C199.247 81.5589 198.951 82.7109 198.359 83.6549C197.767 84.5989 196.975 85.3029 195.983 85.7669C194.991 86.2309 193.895 86.4629 192.695 86.4629C191.495 86.4629 190.399 86.2309 189.407 85.7669C188.431 85.3029 187.655 84.5989 187.079 83.6549C186.503 82.7109 186.215 81.5589 186.215 80.1989V69.6149H188.951ZM209.841 72.8549C210.881 72.8549 211.809 73.0709 212.625 73.5029C213.457 73.9349 214.105 74.5749 214.569 75.4229C215.033 76.2709 215.265 77.2949 215.265 78.4949V86.2949H212.553V78.9029C212.553 77.7189 212.257 76.8149 211.665 76.1909C211.073 75.5509 210.265 75.2309 209.241 75.2309C208.217 75.2309 207.401 75.5509 206.793 76.1909C206.201 76.8149 205.905 77.7189 205.905 78.9029V86.2949H203.169V73.0709H205.905V74.5829C206.353 74.0389 206.921 73.6149 207.609 73.3109C208.313 73.0069 209.057 72.8549 209.841 72.8549ZM218.203 79.6229C218.203 78.2949 218.475 77.1189 219.019 76.0949C219.579 75.0709 220.331 74.2789 221.275 73.7189C222.235 73.1429 223.299 72.8549 224.467 72.8549C225.331 72.8549 226.179 73.0469 227.011 73.4309C227.859 73.7989 228.531 74.2949 229.027 74.9189V68.5349H231.787V86.2949H229.027V84.3029C228.579 84.9429 227.955 85.4709 227.155 85.8869C226.371 86.3029 225.467 86.5109 224.443 86.5109C223.291 86.5109 222.235 86.2229 221.275 85.6469C220.331 85.0549 219.579 84.2389 219.019 83.1989C218.475 82.1429 218.203 80.9509 218.203 79.6229ZM229.027 79.6709C229.027 78.7589 228.835 77.9669 228.451 77.2949C228.083 76.6229 227.595 76.1109 226.987 75.7589C226.379 75.4069 225.723 75.2309 225.019 75.2309C224.315 75.2309 223.659 75.4069 223.051 75.7589C222.443 76.0949 221.947 76.5989 221.563 77.2709C221.195 77.9269 221.011 78.7109 221.011 79.6229C221.011 80.5349 221.195 81.3349 221.563 82.0229C221.947 82.7109 222.443 83.2389 223.051 83.6069C223.675 83.9589 224.331 84.1349 225.019 84.1349C225.723 84.1349 226.379 83.9589 226.987 83.6069C227.595 83.2549 228.083 82.7429 228.451 82.0709C228.835 81.3829 229.027 80.5829 229.027 79.6709ZM247.86 79.3589C247.86 79.8549 247.828 80.3029 247.764 80.7029H237.66C237.74 81.7589 238.132 82.6069 238.836 83.2469C239.54 83.8869 240.404 84.2069 241.428 84.2069C242.9 84.2069 243.94 83.5909 244.548 82.3589H247.5C247.1 83.5749 246.372 84.5749 245.316 85.3589C244.276 86.1269 242.98 86.5109 241.428 86.5109C240.164 86.5109 239.028 86.2309 238.02 85.6709C237.028 85.0949 236.244 84.2949 235.668 83.2709C235.108 82.2309 234.828 81.0309 234.828 79.6709C234.828 78.3109 235.1 77.1189 235.644 76.0949C236.204 75.0549 236.98 74.2549 237.972 73.6949C238.98 73.1349 240.132 72.8549 241.428 72.8549C242.676 72.8549 243.788 73.1269 244.764 73.6709C245.74 74.2149 246.5 74.9829 247.044 75.9749C247.588 76.9509 247.86 78.0789 247.86 79.3589ZM245.004 78.4949C244.988 77.4869 244.628 76.6789 243.924 76.0709C243.22 75.4629 242.348 75.1589 241.308 75.1589C240.364 75.1589 239.556 75.4629 238.884 76.0709C238.212 76.6629 237.812 77.4709 237.684 78.4949H245.004ZM253.649 74.9909C254.049 74.3189 254.577 73.7989 255.233 73.4309C255.905 73.0469 256.697 72.8549 257.609 72.8549V75.6869H256.913C255.841 75.6869 255.025 75.9589 254.465 76.5029C253.921 77.0469 253.649 77.9909 253.649 79.3349V86.2949H250.913V73.0709H253.649V74.9909ZM266.166 79.6709C266.166 78.3109 266.438 77.1189 266.982 76.0949C267.542 75.0549 268.31 74.2549 269.286 73.6949C270.262 73.1349 271.382 72.8549 272.646 72.8549C274.246 72.8549 275.566 73.2389 276.606 74.0069C277.662 74.7589 278.374 75.8389 278.742 77.2469H275.79C275.55 76.5909 275.166 76.0789 274.638 75.7109C274.11 75.3429 273.446 75.1589 272.646 75.1589C271.526 75.1589 270.63 75.5589 269.958 76.3589C269.302 77.1429 268.974 78.2469 268.974 79.6709C268.974 81.0949 269.302 82.2069 269.958 83.0069C270.63 83.8069 271.526 84.2069 272.646 84.2069C274.23 84.2069 275.278 83.5109 275.79 82.1189H278.742C278.358 83.4629 277.638 84.5349 276.582 85.3349C275.526 86.1189 274.214 86.5109 272.646 86.5109C271.382 86.5109 270.262 86.2309 269.286 85.6709C268.31 85.0949 267.542 84.2949 266.982 83.2709C266.438 82.2309 266.166 81.0309 266.166 79.6709ZM287.565 86.5109C286.317 86.5109 285.189 86.2309 284.181 85.6709C283.173 85.0949 282.381 84.2949 281.805 83.2709C281.229 82.2309 280.941 81.0309 280.941 79.6709C280.941 78.3269 281.237 77.1349 281.829 76.0949C282.421 75.0549 283.229 74.2549 284.253 73.6949C285.277 73.1349 286.421 72.8549 287.685 72.8549C288.949 72.8549 290.093 73.1349 291.117 73.6949C292.141 74.2549 292.949 75.0549 293.541 76.0949C294.133 77.1349 294.429 78.3269 294.429 79.6709C294.429 81.0149 294.125 82.2069 293.517 83.2469C292.909 84.2869 292.077 85.0949 291.021 85.6709C289.981 86.2309 288.829 86.5109 287.565 86.5109ZM287.565 84.1349C288.269 84.1349 288.925 83.9669 289.533 83.6309C290.157 83.2949 290.661 82.7909 291.045 82.1189C291.429 81.4469 291.621 80.6309 291.621 79.6709C291.621 78.7109 291.437 77.9029 291.069 77.2469C290.701 76.5749 290.213 76.0709 289.605 75.7349C288.997 75.3989 288.341 75.2309 287.637 75.2309C286.933 75.2309 286.277 75.3989 285.669 75.7349C285.077 76.0709 284.605 76.5749 284.253 77.2469C283.901 77.9029 283.725 78.7109 283.725 79.6709C283.725 81.0949 284.085 82.1989 284.805 82.9829C285.541 83.7509 286.461 84.1349 287.565 84.1349ZM304.166 72.8549C305.206 72.8549 306.134 73.0709 306.95 73.5029C307.782 73.9349 308.43 74.5749 308.894 75.4229C309.358 76.2709 309.59 77.2949 309.59 78.4949V86.2949H306.878V78.9029C306.878 77.7189 306.582 76.8149 305.99 76.1909C305.398 75.5509 304.59 75.2309 303.566 75.2309C302.542 75.2309 301.726 75.5509 301.118 76.1909C300.526 76.8149 300.23 77.7189 300.23 78.9029V86.2949H297.494V73.0709H300.23V74.5829C300.678 74.0389 301.246 73.6149 301.934 73.3109C302.638 73.0069 303.382 72.8549 304.166 72.8549ZM318.24 86.5109C317.2 86.5109 316.264 86.3269 315.432 85.9589C314.616 85.5749 313.968 85.0629 313.488 84.4229C313.008 83.7669 312.752 83.0389 312.72 82.2389H315.552C315.6 82.7989 315.864 83.2709 316.344 83.6549C316.84 84.0229 317.456 84.2069 318.192 84.2069C318.96 84.2069 319.552 84.0629 319.968 83.7749C320.4 83.4709 320.616 83.0869 320.616 82.6229C320.616 82.1269 320.376 81.7589 319.896 81.5189C319.432 81.2789 318.688 81.0149 317.664 80.7269C316.672 80.4549 315.864 80.1909 315.24 79.9349C314.616 79.6789 314.072 79.2869 313.608 78.7589C313.16 78.2309 312.936 77.5349 312.936 76.6709C312.936 75.9669 313.144 75.3269 313.56 74.7509C313.976 74.1589 314.568 73.6949 315.336 73.3589C316.12 73.0229 317.016 72.8549 318.024 72.8549C319.528 72.8549 320.736 73.2389 321.648 74.0069C322.576 74.7589 323.072 75.7909 323.136 77.1029H320.4C320.352 76.5109 320.112 76.0389 319.68 75.6869C319.248 75.3349 318.664 75.1589 317.928 75.1589C317.208 75.1589 316.656 75.2949 316.272 75.5669C315.888 75.8389 315.696 76.1989 315.696 76.6469C315.696 76.9989 315.824 77.2949 316.08 77.5349C316.336 77.7749 316.648 77.9669 317.016 78.1109C317.384 78.2389 317.928 78.4069 318.648 78.6149C319.608 78.8709 320.392 79.1349 321 79.4069C321.624 79.6629 322.16 80.0469 322.608 80.5589C323.056 81.0709 323.288 81.7509 323.304 82.5989C323.304 83.3509 323.096 84.0229 322.68 84.6149C322.264 85.2069 321.672 85.6709 320.904 86.0069C320.152 86.3429 319.264 86.5109 318.24 86.5109ZM329.812 75.3029V82.6229C329.812 83.1189 329.924 83.4789 330.148 83.7029C330.388 83.9109 330.788 84.0149 331.348 84.0149H333.028V86.2949H330.868C329.636 86.2949 328.692 86.0069 328.036 85.4309C327.38 84.8549 327.052 83.9189 327.052 82.6229V75.3029H325.492V73.0709H327.052V69.7829H329.812V73.0709H333.028V75.3029H329.812ZM338.646 74.9909C339.046 74.3189 339.574 73.7989 340.23 73.4309C340.902 73.0469 341.694 72.8549 342.606 72.8549V75.6869H341.91C340.838 75.6869 340.022 75.9589 339.462 76.5029C338.918 77.0469 338.646 77.9909 338.646 79.3349V86.2949H335.91V73.0709H338.646V74.9909ZM357.456 73.0709V86.2949H354.72V84.7349C354.288 85.2789 353.72 85.7109 353.016 86.0309C352.328 86.3349 351.592 86.4869 350.808 86.4869C349.768 86.4869 348.832 86.2709 348 85.8389C347.184 85.4069 346.536 84.7669 346.056 83.9189C345.592 83.0709 345.36 82.0469 345.36 80.8469V73.0709H348.072V80.4389C348.072 81.6229 348.368 82.5349 348.96 83.1749C349.552 83.7989 350.36 84.1109 351.384 84.1109C352.408 84.1109 353.216 83.7989 353.808 83.1749C354.416 82.5349 354.72 81.6229 354.72 80.4389V73.0709H357.456ZM360.514 79.6709C360.514 78.3109 360.786 77.1189 361.33 76.0949C361.89 75.0549 362.658 74.2549 363.634 73.6949C364.61 73.1349 365.73 72.8549 366.994 72.8549C368.594 72.8549 369.914 73.2389 370.954 74.0069C372.01 74.7589 372.722 75.8389 373.09 77.2469H370.138C369.898 76.5909 369.514 76.0789 368.986 75.7109C368.458 75.3429 367.794 75.1589 366.994 75.1589C365.874 75.1589 364.978 75.5589 364.306 76.3589C363.65 77.1429 363.322 78.2469 363.322 79.6709C363.322 81.0949 363.65 82.2069 364.306 83.0069C364.978 83.8069 365.874 84.2069 366.994 84.2069C368.578 84.2069 369.626 83.5109 370.138 82.1189H373.09C372.706 83.4629 371.986 84.5349 370.93 85.3349C369.874 86.1189 368.562 86.5109 366.994 86.5109C365.73 86.5109 364.61 86.2309 363.634 85.6709C362.658 85.0949 361.89 84.2949 361.33 83.2709C360.786 82.2309 360.514 81.0309 360.514 79.6709ZM379.369 75.3029V82.6229C379.369 83.1189 379.481 83.4789 379.705 83.7029C379.945 83.9109 380.345 84.0149 380.905 84.0149H382.585V86.2949H380.425C379.193 86.2949 378.249 86.0069 377.593 85.4309C376.937 84.8549 376.609 83.9189 376.609 82.6229V75.3029H375.049V73.0709H376.609V69.7829H379.369V73.0709H382.585V75.3029H379.369ZM386.859 71.3189C386.363 71.3189 385.947 71.1509 385.611 70.8149C385.275 70.4789 385.107 70.0629 385.107 69.5669C385.107 69.0709 385.275 68.6549 385.611 68.3189C385.947 67.9829 386.363 67.8149 386.859 67.8149C387.339 67.8149 387.747 67.9829 388.083 68.3189C388.419 68.6549 388.587 69.0709 388.587 69.5669C388.587 70.0629 388.419 70.4789 388.083 70.8149C387.747 71.1509 387.339 71.3189 386.859 71.3189ZM388.203 73.0709V86.2949H385.467V73.0709H388.203ZM397.891 86.5109C396.643 86.5109 395.515 86.2309 394.507 85.6709C393.499 85.0949 392.707 84.2949 392.131 83.2709C391.555 82.2309 391.267 81.0309 391.267 79.6709C391.267 78.3269 391.563 77.1349 392.155 76.0949C392.747 75.0549 393.555 74.2549 394.579 73.6949C395.603 73.1349 396.747 72.8549 398.011 72.8549C399.275 72.8549 400.419 73.1349 401.443 73.6949C402.467 74.2549 403.275 75.0549 403.867 76.0949C404.459 77.1349 404.755 78.3269 404.755 79.6709C404.755 81.0149 404.451 82.2069 403.843 83.2469C403.235 84.2869 402.403 85.0949 401.347 85.6709C400.307 86.2309 399.155 86.5109 397.891 86.5109ZM397.891 84.1349C398.595 84.1349 399.251 83.9669 399.859 83.6309C400.483 83.2949 400.987 82.7909 401.371 82.1189C401.755 81.4469 401.947 80.6309 401.947 79.6709C401.947 78.7109 401.763 77.9029 401.395 77.2469C401.027 76.5749 400.539 76.0709 399.931 75.7349C399.323 75.3989 398.667 75.2309 397.963 75.2309C397.259 75.2309 396.603 75.3989 395.995 75.7349C395.403 76.0709 394.931 76.5749 394.579 77.2469C394.227 77.9029 394.051 78.7109 394.051 79.6709C394.051 81.0949 394.411 82.1989 395.131 82.9829C395.867 83.7509 396.787 84.1349 397.891 84.1349ZM414.492 72.8549C415.532 72.8549 416.46 73.0709 417.276 73.5029C418.108 73.9349 418.756 74.5749 419.22 75.4229C419.684 76.2709 419.916 77.2949 419.916 78.4949V86.2949H417.204V78.9029C417.204 77.7189 416.908 76.8149 416.316 76.1909C415.724 75.5509 414.916 75.2309 413.892 75.2309C412.868 75.2309 412.052 75.5509 411.444 76.1909C410.852 76.8149 410.556 77.7189 410.556 78.9029V86.2949H407.82V73.0709H410.556V74.5829C411.004 74.0389 411.572 73.6149 412.26 73.3109C412.964 73.0069 413.708 72.8549 414.492 72.8549Z" fill="white"/>
</svg>
